<?xml version="1.0" encoding="utf-8"?>
<!-- Generator: Adobe Illustrator 23.0.3, SVG Export Plug-In . SVG Version: 6.00 Build 0)  -->
<svg version="1.1" id="Layer_1" xmlns="http://www.w3.org/2000/svg" xmlns:xlink="http://www.w3.org/1999/xlink" x="0px" y="0px"
	 viewBox="0 0 1200 1200" enable-background="new 0 0 1200 1200" xml:space="preserve">
<path fill="#231F20" d="M1143.043,583.187c-15.909-2.988-30.898-22.713-41.059-33.656c-18.483-19.908-35.587-41.059-52.783-62.071
	c-33.518-41.013-67.358-81.152-104.509-118.992c-67.404-68.691-157.108-157.292-262.26-118.9
	c-22.897,8.322-39.542,23.311-59.45,36.369c-22.943,14.989-38.575,4.552-57.519-10.116c-41.058-31.817-93.52-44.92-144.142-30.208
	c-48.553,14.115-89.704,49.84-126.164,83.404c-38.438,35.358-74.899,73.244-108.371,113.337
	c-33.747,40.369-65.381,83.634-102.807,120.785c-5.196,5.149-10.483,10.437-16.553,14.575c-4.827,3.356-13.886,4.782-16.552,10.253
	c-4.322,8.92,8.552,20.001,13.38,26.622c8,11.034,16.23,21.886,24.644,32.598c40.369,51.128,84.692,98.807,129.153,146.349
	c69.841,74.807,153.752,128.556,254.076,152.189c100.371,23.678,209.478,18.851,306.813-15.541
	c84.003-29.656,150.993-82.117,210.811-146.947c45.656-49.473,91.266-98.807,132.831-151.821
	C1127.318,625.303,1165.342,586.221,1143.043,583.187z M102.829,576.566c31.771-29.702,59.174-63.956,87.037-97.29
	c27.495-32.829,56.047-64.278,86.439-94.485c54.392-54.071,126.716-130.349,211.271-115.498
	c20.092,3.494,38.437,12.093,54.99,23.909c15.403,11.035,28.598,24.736,48.185,27.725c41.657,6.345,68.691-35.358,105.153-47.587
	c85.243-28.598,160.096,42.898,216.511,97.152c34.346,33.013,66.623,67.542,97.336,103.957
	c31.542,37.334,61.979,77.887,99.314,109.704c-77.658,3.77-156.372,3.954-233.708-4.874c-35.679-4.092-70.99-11.816-104.83-24.047
	c-16.092-5.839-31.818-12.644-46.991-20.552c-12.322-6.483-25.609-18.713-39.219-22.345c-14.484-3.909-25.564,7.218-38.024,12.414
	c-16.461,6.851-34.622,9.426-52.37,8.46c-22.437-1.195-36.553-8.92-55.495-18.254c-12.507-6.161-22.162-3.586-33.105,3.586
	c-16.046,10.575-33.012,19.541-50.576,27.265c-33.38,14.667-68.829,24.506-104.784,30.437
	c-83.956,13.793-171.729,12.368-256.421,8.552C96.714,582.175,99.794,579.417,102.829,576.566z M745.331,574.221
	c-29.749,5.012-57.382,16.185-83.589,30.943c-12.874,7.219-25.288,15.219-37.38,23.679c-5.563,3.908-11.035,7.908-16.461,12.046
	c-1.149,0.873-5.655,5.563-7.265,5.655c-1.103,0-6.575-5.15-7.126-5.563c-5.38-4.184-10.851-8.184-16.415-12.138
	c-11.449-8.092-23.265-15.679-35.403-22.668c-26.668-15.357-54.945-27.219-85.474-32.231c13.886-5.563,27.495-11.816,40.645-18.943
	c4.873-2.621,24.736-18.024,28.781-16.046c31.404,18.345,64.784,26.069,101.382,19.678c11.909-2.115,23.587-5.655,34.53-10.805
	c7.081-3.31,12.185-9.104,18.852-7.081c9.839,2.989,20.506,12.598,29.794,17.426C721.651,564.152,733.376,569.393,745.331,574.221z
	 M1023.913,712.892c-29.564,30.805-57.841,63.082-88.692,92.6c-66.208,63.45-150.395,104.83-240.558,120.785
	c-94.762,16.828-195.546,7.954-284.699-28.921c-74.439-30.714-132.372-80.876-186.58-139.13
	c-47.633-51.174-95.727-101.888-141.613-154.671c76.232,6.575,153.429,8.414,229.754,2.528c19.035-1.425,38.07-3.494,56.875-6.897
	c8.046-1.471,16.001-3.632,24.093-5.057c10.667-1.886,21.519-1.149,32.323-0.138c37.427,3.402,70.531,15.908,102.67,35.035
	c15.311,9.15,30.116,19.311,44.415,30.024c6.668,5.012,14.208,13.15,22.392,15.587c9.288,2.804,16.69-1.242,23.77-6.759
	c12.828-10.023,25.794-19.678,39.358-28.644c30.897-20.369,63.542-37.012,100.233-43.633c16.323-2.943,33.058-5.61,49.243-1.655
	c18.299,4.414,36.875,7.724,55.588,9.885c85.105,9.977,172.694,7.863,257.938,0.368
	C1089.248,641.349,1057.109,677.58,1023.913,712.892z"/>
</svg>
